<?xml version="1.0" standalone="no"?>
<!DOCTYPE svg PUBLIC "-//W3C//DTD SVG 20010904//EN"
 "http://www.w3.org/TR/2001/REC-SVG-20010904/DTD/svg10.dtd">
<svg version="1.0" xmlns="http://www.w3.org/2000/svg"
 width="512.000000pt" height="512.000000pt" viewBox="0 0 512.000000 512.000000"
 preserveAspectRatio="xMidYMid meet">

<g transform="translate(0.000000,512.000000) scale(0.100000,-0.100000)"
fill="#000000" stroke="none">
<path d="M1347 5102 c-24 -27 -23 -123 1 -145 24 -22 55 -21 75 1 24 27 23
123 -1 145 -24 22 -55 21 -75 -1z"/>
<path d="M3627 5102 c-24 -27 -23 -123 1 -145 45 -41 92 -4 92 73 0 77 -52
117 -93 72z"/>
<path d="M1137 4892 c-39 -42 -3 -92 66 -92 75 0 114 53 69 93 -26 24 -113 23
-135 -1z"/>
<path d="M1497 4892 c-41 -45 -4 -92 70 -92 70 0 107 55 65 93 -26 24 -113 23
-135 -1z"/>
<path d="M3417 4892 c-41 -45 -4 -92 70 -92 70 0 107 55 65 93 -26 24 -113 23
-135 -1z"/>
<path d="M3776 4894 c-21 -21 -20 -57 2 -77 27 -25 106 -23 132 3 24 24 25 38
4 68 -12 18 -25 22 -69 22 -35 0 -59 -5 -69 -16z"/>
<path d="M2499 4801 c-13 -10 -48 -70 -79 -132 l-55 -114 -70 -11 c-38 -6 -92
-15 -119 -19 -65 -9 -106 -48 -106 -99 0 -38 13 -56 136 -186 l52 -55 -19
-110 c-25 -154 -25 -171 10 -206 45 -44 81 -40 198 27 54 31 103 57 108 57 6
0 54 -26 107 -57 116 -67 153 -72 199 -27 35 35 35 46 10 200 l-19 115 94 103
c82 90 94 107 94 139 0 26 -8 43 -28 64 -28 28 -37 30 -217 57 l-50 8 -56 114
c-30 63 -66 122 -78 132 -30 24 -82 24 -112 0z m110 -221 c24 -52 49 -101 57
-109 11 -12 189 -49 242 -51 8 0 -27 -44 -77 -97 -56 -59 -91 -105 -91 -117 1
-12 9 -70 19 -131 10 -60 17 -111 16 -113 -2 -2 -48 22 -102 52 -55 31 -108
56 -118 56 -10 0 -63 -25 -118 -56 -54 -30 -101 -54 -102 -52 -2 2 5 55 16
118 10 63 19 122 19 130 0 8 -41 58 -90 111 l-89 96 112 18 c62 10 120 22 130
27 10 5 29 34 42 64 14 29 36 79 51 110 14 32 28 53 33 48 4 -5 27 -52 50
-104z"/>
<path d="M1347 4742 c-25 -27 -23 -106 3 -132 43 -43 90 -8 90 68 0 73 -53
109 -93 64z"/>
<path d="M3626 4744 c-11 -10 -16 -34 -16 -69 0 -44 4 -57 22 -69 30 -21 44
-20 68 4 25 25 27 95 4 128 -18 26 -56 29 -78 6z"/>
<path d="M846 4263 c-22 -14 -44 -49 -82 -133 l-53 -115 -125 -21 c-138 -22
-162 -35 -172 -91 -9 -48 2 -68 100 -170 l85 -89 -22 -133 c-25 -153 -20 -172
47 -205 l38 -19 77 41 c42 22 94 50 117 63 l40 22 104 -58 c124 -70 159 -74
202 -26 33 37 34 49 9 201 l-19 115 78 80 c42 44 85 91 94 105 25 38 21 87
-12 119 -24 25 -42 30 -149 46 l-122 18 -52 114 c-29 62 -60 120 -70 129 -27
24 -80 27 -113 7z m104 -226 c24 -54 50 -103 58 -110 8 -7 68 -21 133 -32
l118 -20 -89 -98 c-50 -53 -90 -103 -90 -110 0 -6 9 -64 19 -127 10 -63 17
-117 15 -119 -2 -2 -48 22 -103 53 -54 31 -106 56 -115 56 -9 0 -61 -25 -116
-56 -56 -31 -102 -55 -104 -53 -2 2 6 61 17 131 l21 126 -91 99 -92 98 117 18
c64 10 124 25 133 33 9 8 38 62 64 120 27 57 51 101 55 97 4 -4 26 -52 50
-106z"/>
<path d="M4180 4267 c-18 -8 -42 -48 -84 -133 l-58 -121 -122 -18 c-105 -17
-125 -22 -148 -46 -33 -32 -37 -81 -12 -119 9 -14 52 -61 94 -105 l78 -80 -21
-132 c-23 -146 -19 -168 28 -199 42 -27 78 -19 183 40 54 31 102 56 106 56 4
0 54 -26 109 -57 121 -68 156 -72 199 -24 33 37 33 42 9 195 l-20 119 90 95
c90 96 106 123 95 166 -14 57 -35 69 -170 90 l-127 21 -53 115 c-65 142 -104
173 -176 137z m162 -343 c7 -5 66 -18 130 -29 l117 -20 -92 -98 -91 -99 21
-126 c11 -70 19 -129 17 -131 -2 -2 -48 22 -103 53 -54 31 -107 56 -116 56 -9
0 -62 -25 -116 -56 -55 -31 -101 -55 -103 -53 -2 2 5 56 15 119 10 63 19 121
19 127 0 7 -40 57 -90 110 l-89 98 107 17 c59 10 117 23 130 30 20 10 75 112
114 208 10 23 14 17 63 -86 29 -62 59 -116 67 -120z"/>
<path d="M2550 3574 c-97 -19 -197 -69 -262 -132 l-37 -35 -68 58 c-65 56 -68
57 -113 51 -149 -20 -258 -106 -311 -245 -20 -52 -21 -76 -23 -336 l-1 -280
32 -66 c20 -40 53 -85 83 -113 46 -43 50 -50 50 -94 1 -167 124 -397 264 -493
l36 -24 0 -85 0 -85 -338 -155 c-371 -170 -409 -195 -453 -293 l-24 -52 -3
-574 c-2 -505 -1 -576 13 -597 l15 -24 1150 0 1150 0 15 24 c14 21 15 91 13
597 l-3 574 -28 56 c-48 99 -79 119 -449 289 l-337 155 -1 85 0 85 36 24 c57
39 146 143 187 219 42 79 77 202 77 272 0 32 5 52 17 61 34 29 102 131 123
186 46 124 44 282 -6 433 -79 237 -284 428 -529 494 -61 17 -230 29 -275 20z
m285 -138 c107 -37 186 -87 267 -168 159 -161 226 -420 157 -601 -20 -52 -63
-117 -71 -107 -3 3 -49 119 -103 259 -109 278 -118 293 -173 258 -117 -75
-221 -107 -352 -107 -131 0 -235 32 -352 107 -55 35 -64 20 -168 -256 -52
-138 -98 -257 -102 -263 -11 -18 -44 17 -74 78 l-26 54 3 258 4 258 30 60 c34
65 95 115 166 134 l39 11 80 -71 c44 -38 87 -70 96 -70 9 0 42 27 74 59 62 63
126 105 193 127 67 22 215 12 312 -20z m-426 -561 c141 -29 306 -13 440 43
l69 29 96 -246 c81 -207 96 -255 96 -301 -1 -228 -184 -454 -416 -515 -282
-73 -588 103 -668 385 -32 114 -28 133 78 417 l98 260 68 -28 c37 -16 100 -36
139 -44z m151 -1109 c111 0 145 4 193 20 l57 21 0 -131 c0 -150 -8 -189 -53
-248 -97 -129 -297 -129 -394 0 -45 59 -53 97 -53 249 l0 131 58 -21 c48 -18
79 -21 192 -21z m-355 -238 c18 -115 102 -226 208 -274 53 -25 75 -29 147 -29
72 0 94 4 147 29 106 48 190 159 208 274 4 23 10 42 14 42 4 0 144 -63 311
-140 327 -150 358 -171 380 -249 6 -22 10 -241 10 -553 l0 -518 -205 0 -205 0
0 217 c0 187 -2 219 -17 235 -22 25 -59 23 -77 -4 -13 -19 -16 -59 -16 -235
l0 -213 -550 0 -550 0 0 213 c0 176 -3 216 -16 235 -18 26 -50 28 -76 5 -16
-15 -18 -36 -18 -235 l0 -218 -205 0 -205 0 0 518 c0 312 4 531 10 553 22 78
53 99 380 249 168 77 308 140 312 140 3 0 9 -19 13 -42z"/>
<path d="M463 3001 c-99 -34 -171 -113 -192 -212 -6 -28 -11 -139 -11 -247 0
-187 1 -200 24 -249 14 -28 43 -69 65 -91 l41 -40 0 -99 c0 -164 41 -266 152
-377 l69 -69 -3 -55 -3 -54 -248 -117 c-257 -120 -298 -147 -334 -219 -17 -34
-18 -74 -21 -486 -2 -409 -1 -450 14 -467 16 -18 40 -19 419 -19 377 0 403 1
418 18 22 24 21 55 -1 75 -17 15 -58 17 -380 17 l-362 0 0 395 c0 418 1 426
46 467 16 14 445 218 459 218 3 0 5 -11 5 -25 0 -73 67 -163 155 -206 57 -28
72 -31 132 -27 115 6 199 63 247 167 17 38 21 71 24 184 l4 137 65 62 c77 75
137 187 153 288 5 36 10 156 10 267 0 186 1 202 18 207 33 11 104 90 131 146
21 45 26 69 25 130 0 94 -30 156 -104 223 -82 74 -103 77 -467 77 l-313 0 -31
-35 -32 -35 -33 35 c-37 41 -62 44 -141 16z m102 -140 c57 -75 90 -74 146 3
l32 46 291 0 c262 0 295 -2 331 -19 124 -57 153 -214 57 -314 -59 -62 -187
-107 -312 -109 -161 -2 -271 45 -458 198 -28 23 -38 26 -60 18 -24 -8 -35 -30
-97 -202 -38 -105 -74 -190 -80 -189 -5 2 -18 18 -29 37 -18 29 -19 51 -17
224 1 105 6 207 11 227 12 43 72 106 114 118 17 5 32 10 32 10 1 1 19 -21 39
-48z m259 -441 c106 -48 185 -63 306 -56 58 3 120 8 138 12 l32 6 0 -184 c0
-201 -10 -264 -57 -351 -34 -62 -107 -128 -181 -163 -82 -40 -206 -45 -295
-14 -170 60 -262 191 -274 389 l-5 96 65 175 c36 96 68 183 72 192 6 15 15 12
70 -27 35 -25 93 -59 129 -75z m71 -880 c39 0 94 6 123 14 l52 13 0 -95 c0
-119 -21 -170 -84 -207 -98 -57 -219 -12 -255 94 -6 19 -11 73 -11 122 l0 87
53 -14 c28 -7 84 -14 122 -14z"/>
<path d="M3795 3002 c-96 -33 -162 -101 -190 -194 -19 -66 -23 -428 -5 -484
15 -47 64 -120 91 -137 16 -10 19 -24 19 -82 0 -181 54 -320 164 -422 l64 -60
4 -139 c3 -128 5 -143 31 -196 71 -144 232 -199 375 -127 85 42 152 132 152
204 0 14 2 25 5 25 14 0 443 -204 459 -218 45 -41 46 -49 46 -467 l0 -395
-358 0 c-335 0 -360 -1 -375 -18 -22 -24 -21 -55 1 -75 17 -15 60 -17 414 -17
370 0 396 1 411 18 15 17 17 63 17 452 0 308 -3 444 -12 473 -7 22 -32 62 -58
88 -39 43 -75 63 -290 163 l-245 114 -3 55 -3 54 69 69 c38 38 81 92 94 119
52 103 58 141 58 392 l0 232 28 15 c41 21 111 101 135 154 29 66 29 169 -2
237 -28 63 -81 119 -146 153 l-50 27 -333 3 -332 3 -33 -36 -33 -36 -31 36
c-36 40 -61 44 -138 17z m98 -141 c57 -75 89 -74 146 3 l35 46 290 0 c264 0
295 -2 333 -19 82 -38 128 -139 103 -229 -30 -113 -188 -195 -373 -194 -141 1
-257 47 -396 158 -74 60 -86 66 -110 58 -26 -9 -40 -40 -161 -369 l-11 -30
-19 23 c-35 42 -40 88 -32 289 7 183 8 192 34 230 22 33 93 83 118 83 3 0 23
-22 43 -49z m295 -454 c106 -39 181 -50 285 -43 50 3 107 9 126 12 l33 7 -4
-204 c-6 -231 -14 -271 -75 -359 -49 -69 -117 -121 -199 -150 -90 -31 -213
-26 -296 14 -114 54 -190 147 -223 271 -20 78 -20 195 1 243 13 29 54 143 119
329 2 7 35 -9 84 -42 45 -29 112 -64 149 -78z m37 -867 c38 0 94 7 123 14 l52
14 0 -87 c0 -49 -5 -103 -11 -122 -36 -106 -157 -151 -255 -94 -63 37 -84 88
-84 207 l0 95 52 -13 c29 -8 84 -14 123 -14z"/>
<path d="M1036 298 c-35 -50 -4 -112 55 -110 61 2 91 70 49 112 -28 28 -84 27
-104 -2z"/>
<path d="M3966 298 c-44 -63 11 -132 81 -103 47 20 52 88 9 117 -24 16 -75 8
-90 -14z"/>
</g>
</svg>
